<svg width="734" height="632" viewBox="0 0 734 632" fill="none" xmlns="http://www.w3.org/2000/svg">
<g clip-path="url(#clip0_65_495)" filter="url(#filter0_ddddd_65_495)">
<path d="M473.358 81.5673V35.9905C473.358 35.3725 473.907 34.8318 474.535 34.8318H483.719C484.033 34.8318 484.425 34.9863 484.582 35.218L506.717 61.5598V35.9132C506.717 35.2953 507.267 34.7545 507.895 34.7545H518.413C519.041 34.7545 519.59 35.2953 519.59 35.9132V81.49C519.59 82.108 519.041 82.6487 518.413 82.6487H509.151C508.837 82.6487 508.444 82.4942 508.287 82.2625L486.152 55.9207V81.49C486.152 82.108 485.603 82.6487 484.975 82.6487H474.457C473.907 82.726 473.358 82.1853 473.358 81.5673Z" fill="#A6CE39"/>
<path d="M529.637 81.5673V35.9905C529.637 35.3725 530.187 34.8318 530.815 34.8318H566.451C567.079 34.8318 567.628 35.3725 567.628 35.9905V43.7926C567.628 44.4106 567.079 44.9514 566.451 44.9514H542.589V53.7577H563.468C564.096 53.7577 564.645 54.2985 564.645 54.9165V62.0234C564.645 62.6413 564.096 63.1821 563.468 63.1821H542.589V72.6064H567.393C568.02 72.6064 568.57 73.1472 568.57 73.7652V81.5673C568.57 82.1853 568.02 82.726 567.393 82.726H530.815C530.108 82.726 529.637 82.1853 529.637 81.5673Z" fill="#A6CE39"/>
<path d="M588.743 81.5673V44.9514H574.692C574.064 44.9514 573.515 44.4106 573.515 43.7926V35.9132C573.515 35.2953 574.064 34.7545 574.692 34.7545H615.823C616.451 34.7545 617 35.2953 617 35.9132V43.7154C617 44.3334 616.451 44.8741 615.823 44.8741H601.851V81.49C601.851 82.108 601.301 82.6487 600.673 82.6487H589.841C589.214 82.726 588.743 82.1853 588.743 81.5673Z" fill="#A6CE39"/>
<path d="M176.576 76.4689C187.457 76.4689 196.278 67.7879 196.278 57.0794C196.278 46.3709 187.457 37.69 176.576 37.69C165.695 37.69 156.874 46.3709 156.874 57.0794C156.874 67.7879 165.695 76.4689 176.576 76.4689Z" fill="#A6CE39"/>
<path fill-rule="evenodd" clip-rule="evenodd" d="M207.816 72.2974C207.345 72.6064 206.717 71.9884 207.11 71.5249C217 60.1694 220.375 46.6509 214.488 36.6085C207.267 24.2487 188.193 21.6995 169.904 28.3429C150.281 35.4498 137.487 50.0498 140.077 64.8043C145.257 95.0858 206.482 92.4594 227.754 90.7599C228.382 90.6826 228.538 91.6096 227.911 91.7641C173.201 104.047 124.928 96.6308 117.785 69.5165C110.956 43.4836 150.516 28.2656 168.334 23.708C192.746 17.4508 223.986 17.6053 230.344 35.1408C234.504 46.4964 225.085 60.9419 207.816 72.2974Z" fill="#A6CE39"/>
<path d="M246.121 81.1038L266.608 35.527C266.764 35.1408 267.235 34.8318 267.706 34.8318H279.402C279.873 34.8318 280.265 35.0635 280.501 35.527L300.987 81.1038C301.301 81.8763 300.752 82.726 299.888 82.726H288.899C288.429 82.726 287.958 82.417 287.801 82.0308L284.268 73.4562H262.604L259.072 81.9535C258.915 82.417 258.444 82.6488 257.973 82.6488H247.141C246.356 82.726 245.807 81.8763 246.121 81.1038ZM280.501 63.9546L273.515 46.7281L266.529 63.9546H280.501Z" fill="#A6CE39"/>
<path d="M306.246 81.5673V35.9905C306.246 35.3725 306.796 34.8318 307.424 34.8318H316.451C316.843 34.8318 317.235 35.0635 317.471 35.3725L334.582 63.4138L351.694 35.3725C351.929 35.0635 352.322 34.8318 352.714 34.8318H361.741C362.369 34.8318 362.918 35.3725 362.918 35.9905V81.5673C362.918 82.1853 362.369 82.726 361.741 82.726H352.008C351.38 82.726 350.83 82.1853 350.83 81.5673V55.689L337.722 77.3186C337.487 77.6276 337.094 77.8593 336.702 77.8593H332.306C331.914 77.8593 331.521 77.6276 331.286 77.3186L318.256 56.4614V81.5673C318.256 82.1853 317.706 82.726 317.078 82.726H307.345C306.717 82.726 306.246 82.1853 306.246 81.5673Z" fill="#A6CE39"/>
<path d="M395.65 83.653C388.429 83.653 382.777 81.7218 378.774 77.8593C374.771 73.9969 372.808 68.5895 372.808 61.4053V35.9132C372.808 35.2953 373.358 34.7545 373.986 34.7545H384.818C385.446 34.7545 385.995 35.2953 385.995 35.9132V60.9418C385.995 69.1302 389.135 73.0699 395.65 73.0699C402.243 73.0699 405.54 68.9757 405.54 60.9418V35.9132C405.54 35.2953 406.089 34.7545 406.717 34.7545H417.314C417.942 34.7545 418.491 35.2953 418.491 35.9132V61.3281C418.491 68.435 416.451 73.9196 412.447 77.7821C408.523 81.7218 402.793 83.653 395.65 83.653Z" fill="#A6CE39"/>
<path d="M445.258 83.653C441.333 83.653 437.408 83.1895 433.719 82.1853C430.579 81.4128 427.911 80.3313 425.791 79.0953C425.32 78.7863 425.085 78.1683 425.32 77.6276L428.695 70.2117C428.774 70.0572 428.931 69.7482 429.402 69.671C429.873 69.5165 430.187 69.7482 430.265 69.7482C432.071 70.8297 434.19 71.6794 436.623 72.4519C439.606 73.3789 442.51 73.7652 445.414 73.7652C451.066 73.7652 453.892 72.2974 453.892 69.362C453.892 68.2805 453.421 66.8128 451.301 65.8858C449.732 65.1906 447.22 64.4953 443.845 63.7228C440.155 62.9503 437.016 62.1006 434.582 61.1736C432.149 60.3239 430.03 58.8562 428.303 56.9249C426.576 54.9937 425.713 52.3673 425.713 49.1228C425.713 46.2646 426.498 43.6381 428.146 41.3207C429.716 39.0032 432.149 37.1493 435.367 35.836C438.586 34.4455 442.589 33.7503 447.22 33.7503C450.438 33.7503 453.656 34.1366 456.717 34.8318C459.308 35.4498 461.663 36.2223 463.703 37.3037C464.253 37.6127 464.488 38.2307 464.253 38.7715L461.035 46.2646C460.956 46.4191 460.799 46.7281 460.328 46.8826C459.936 46.9598 459.622 46.8053 459.543 46.8053C455.305 44.7196 451.144 43.7154 447.063 43.7154C444.159 43.7154 442.118 44.1016 440.705 45.0286C439.292 45.9556 438.586 47.1143 438.586 48.5821C438.586 49.5863 439.057 50.9768 441.097 51.9038C442.589 52.599 445.101 53.217 448.476 53.9122C452.243 54.6847 455.383 55.5345 457.816 56.4614C460.25 57.3112 462.29 58.7789 464.096 60.6329C465.823 62.4868 466.686 65.1133 466.686 68.3577C466.686 71.216 465.901 73.7652 464.253 76.0826C462.683 78.4001 460.25 80.2541 457.031 81.6445C453.892 82.9578 449.889 83.653 445.258 83.653Z" fill="#A6CE39"/>
</g>
<defs>
<filter id="filter0_ddddd_65_495" x="0" y="0" width="734" height="631.558" filterUnits="userSpaceOnUse" color-interpolation-filters="sRGB">
<feFlood flood-opacity="0" result="BackgroundImageFix"/>
<feColorMatrix in="SourceAlpha" type="matrix" values="0 0 0 0 0 0 0 0 0 0 0 0 0 0 0 0 0 0 127 0" result="hardAlpha"/>
<feOffset dy="17"/>
<feGaussianBlur stdDeviation="18.5"/>
<feColorMatrix type="matrix" values="0 0 0 0 0 0 0 0 0 0 0 0 0 0 0 0 0 0 0.2 0"/>
<feBlend mode="normal" in2="BackgroundImageFix" result="effect1_dropShadow_65_495"/>
<feColorMatrix in="SourceAlpha" type="matrix" values="0 0 0 0 0 0 0 0 0 0 0 0 0 0 0 0 0 0 127 0" result="hardAlpha"/>
<feOffset dy="67"/>
<feGaussianBlur stdDeviation="33.5"/>
<feColorMatrix type="matrix" values="0 0 0 0 0 0 0 0 0 0 0 0 0 0 0 0 0 0 0.2 0"/>
<feBlend mode="normal" in2="effect1_dropShadow_65_495" result="effect2_dropShadow_65_495"/>
<feColorMatrix in="SourceAlpha" type="matrix" values="0 0 0 0 0 0 0 0 0 0 0 0 0 0 0 0 0 0 127 0" result="hardAlpha"/>
<feOffset dy="150"/>
<feGaussianBlur stdDeviation="45"/>
<feColorMatrix type="matrix" values="0 0 0 0 0 0 0 0 0 0 0 0 0 0 0 0 0 0 0.2 0"/>
<feBlend mode="normal" in2="effect2_dropShadow_65_495" result="effect3_dropShadow_65_495"/>
<feColorMatrix in="SourceAlpha" type="matrix" values="0 0 0 0 0 0 0 0 0 0 0 0 0 0 0 0 0 0 127 0" result="hardAlpha"/>
<feOffset dy="267"/>
<feGaussianBlur stdDeviation="53.5"/>
<feColorMatrix type="matrix" values="0 0 0 0 0 0 0 0 0 0 0 0 0 0 0 0 0 0 0.1 0"/>
<feBlend mode="normal" in2="effect3_dropShadow_65_495" result="effect4_dropShadow_65_495"/>
<feColorMatrix in="SourceAlpha" type="matrix" values="0 0 0 0 0 0 0 0 0 0 0 0 0 0 0 0 0 0 127 0" result="hardAlpha"/>
<feOffset dy="417"/>
<feGaussianBlur stdDeviation="58.5"/>
<feColorMatrix type="matrix" values="0 0 0 0 0 0 0 0 0 0 0 0 0 0 0 0 0 0 0.1 0"/>
<feBlend mode="normal" in2="effect4_dropShadow_65_495" result="effect5_dropShadow_65_495"/>
<feBlend mode="normal" in="SourceGraphic" in2="effect5_dropShadow_65_495" result="shape"/>
</filter>
<clipPath id="clip0_65_495">
<rect width="500" height="77.5578" fill="white" transform="translate(117 20)"/>
</clipPath>
</defs>
</svg>
